<?xml version="1.0" standalone="no"?>
<!DOCTYPE svg PUBLIC "-//W3C//DTD SVG 20010904//EN"
 "http://www.w3.org/TR/2001/REC-SVG-20010904/DTD/svg10.dtd">
<svg version="1.0" xmlns="http://www.w3.org/2000/svg"
 width="800.000000pt" height="536.000000pt" viewBox="0 0 800.000000 536.000000"
 preserveAspectRatio="xMidYMid meet">

<g transform="translate(0.000000,536.000000) scale(0.100000,-0.100000)"
fill="#000000" stroke="none">
<path d="M7514 5239 c-104 -110 -364 -313 -551 -432 -128 -81 -320 -193 -350
-204 -10 -3 14 27 52 68 155 165 305 439 240 439 -32 0 -231 -146 -515 -377
-8 -7 -96 -78 -195 -159 -99 -81 -205 -163 -235 -182 -54 -35 -222 -122 -235
-122 -4 0 22 33 57 73 128 143 218 270 218 307 0 31 -32 24 -71 -16 -107 -112
-644 -515 -772 -580 -66 -33 -161 -118 -252 -226 -48 -57 -170 -184 -269 -283
-196 -194 -296 -309 -366 -420 -69 -109 -103 -152 -162 -200 -56 -46 -137 -87
-198 -100 -19 -4 -47 -18 -62 -32 -15 -14 -44 -36 -65 -49 l-38 -23 57 -1 c31
0 65 -3 75 -7 16 -6 15 -8 -7 -14 -20 -6 -18 -7 16 -8 23 -1 63 -4 90 -8 l49
-6 -70 -23 c-39 -13 -86 -24 -105 -25 -31 -1 -28 -3 20 -13 57 -12 58 -19 3
-31 -47 -10 -51 -25 -6 -25 37 0 140 -23 150 -34 3 -3 -7 -11 -23 -17 -29 -11
-29 -11 -6 -22 12 -5 22 -13 22 -17 0 -3 -25 -17 -55 -29 -67 -28 -74 -37 -38
-53 15 -7 39 -19 52 -27 23 -15 23 -15 -20 -28 -31 -9 -54 -10 -79 -3 -19 6
-46 9 -60 9 -20 -1 -21 -2 -5 -6 47 -10 165 -56 165 -64 0 -5 -20 -9 -45 -9
-25 0 -45 -3 -45 -7 0 -5 27 -21 60 -37 66 -32 78 -51 28 -42 -76 13 -136 16
-188 8 l-55 -8 90 -7 c50 -4 92 -12 93 -18 2 -5 15 -23 29 -40 14 -16 23 -32
20 -36 -6 -6 -110 11 -141 23 -13 5 -17 4 -13 -4 4 -6 21 -13 37 -17 17 -4 39
-20 52 -37 l22 -31 -47 6 c-26 4 -59 9 -74 12 l-28 6 30 -18 c17 -10 39 -26
50 -35 11 -9 31 -26 45 -38 l25 -21 -35 6 c-36 7 -117 42 -160 71 -14 9 -7 0
14 -20 48 -44 26 -48 -32 -6 -23 17 -45 30 -49 30 -4 0 2 -6 13 -14 10 -8 16
-18 11 -22 -4 -4 -17 2 -30 13 -28 26 -52 40 -44 25 5 -7 -14 -11 -53 -14
l-60 -3 0 37 c0 35 2 37 43 47 l42 10 -55 -1 c-36 -1 -84 -13 -140 -35 -47
-18 -92 -33 -101 -33 -9 0 -22 -7 -29 -15 -24 -28 51 -17 127 19 39 19 74 32
77 29 3 -4 6 -21 6 -40 0 -18 4 -52 10 -75 5 -24 13 -75 18 -113 14 -104 48
-166 153 -275 50 -52 104 -115 121 -139 29 -41 30 -45 15 -70 -23 -39 -45
-123 -61 -236 -20 -133 -37 -180 -101 -278 -53 -82 -117 -137 -158 -137 -30 0
-103 56 -117 90 -10 24 -31 39 -97 72 -88 44 -99 45 -224 35 -93 -7 -117 -26
-134 -102 l-7 -30 24 23 c14 12 36 22 51 22 23 0 27 -4 27 -27 1 -25 2 -26 14
-10 14 18 36 23 36 7 0 -5 -10 -18 -21 -29 -24 -22 -38 -104 -20 -115 6 -4 11
-1 11 6 0 34 27 51 81 54 46 2 67 -4 137 -37 45 -22 82 -44 82 -49 0 -5 7 -16
16 -25 9 -9 14 -18 11 -21 -2 -3 -43 0 -90 6 -75 9 -90 8 -128 -8 -25 -11 -51
-27 -59 -37 -21 -25 -19 -100 3 -122 16 -16 17 -16 17 10 0 32 40 77 67 77 10
0 27 -7 38 -16 20 -15 19 -16 -11 -42 -51 -46 -72 -139 -40 -186 22 -35 32
-33 32 8 0 50 26 83 63 81 18 -1 31 3 31 10 0 6 11 22 24 34 21 20 30 22 87
15 46 -5 71 -13 89 -29 14 -13 41 -27 60 -32 30 -8 36 -15 45 -47 8 -35 7 -40
-18 -60 -15 -12 -27 -27 -27 -34 0 -20 -47 -25 -80 -8 -30 15 -31 14 -24 -7
14 -47 40 -62 109 -61 70 1 90 11 100 52 10 42 34 62 73 62 30 0 43 9 91 60
71 79 106 99 186 111 37 5 80 16 97 25 l31 16 -7 -26 c-12 -47 21 -21 49 39
l14 30 1 -34 0 -34 19 24 c10 13 30 47 45 74 l26 50 -3 -43 c-1 -23 0 -42 4
-42 5 0 46 85 62 130 4 10 6 7 6 -7 1 -13 5 -23 10 -23 14 0 51 107 51 149 0
23 6 28 43 38 69 19 126 73 76 73 -11 0 -30 5 -42 11 -19 11 -15 13 39 30 32
10 73 30 89 43 l30 25 -24 9 -24 9 35 21 c19 12 43 31 53 42 16 18 17 23 5 30
-8 6 -25 10 -37 10 -48 0 -9 45 53 61 22 6 54 22 72 36 18 14 61 36 95 49 34
14 79 41 102 63 22 21 50 42 63 46 31 9 82 66 82 91 0 11 9 29 21 40 16 14 20
27 16 51 -5 26 -1 35 20 48 17 12 22 20 15 27 -8 8 -4 16 11 28 l22 18 -43 17
c-46 19 -46 19 -32 45 10 19 -4 42 -32 53 -10 4 -10 8 2 16 17 12 13 17 -32
39 -24 12 -32 23 -31 39 2 15 -6 24 -28 33 -47 20 -152 129 -187 194 -30 56
-30 58 -9 52 12 -4 54 -9 92 -13 39 -3 77 -12 86 -19 29 -26 76 -28 119 -5 22
11 50 21 62 21 12 0 30 8 40 17 24 21 83 25 117 7 43 -23 115 -18 148 10 27
22 32 23 72 13 37 -10 47 -9 79 8 20 11 45 35 54 54 9 18 27 39 40 45 28 14
77 101 77 137 1 24 5 27 33 25 28 -1 33 3 38 29 4 24 10 29 29 27 33 -5 61 25
61 65 0 26 4 33 20 33 24 0 40 28 40 69 0 28 2 30 19 19 27 -17 50 4 57 54 5
31 10 38 23 32 9 -4 27 -7 41 -8 23 -1 25 3 28 53 3 49 5 53 25 47 46 -13 137
-19 137 -9 0 5 -19 24 -42 41 -24 18 -61 48 -83 68 l-40 37 30 -7 c17 -4 84
-9 150 -12 137 -6 217 8 223 39 4 21 -34 67 -55 67 -18 0 -16 17 3 24 10 4 14
14 11 26 -5 18 0 20 49 20 59 0 124 22 124 41 0 7 -9 23 -21 35 l-21 22 49 7
c71 9 78 15 63 59 -6 19 -16 38 -21 41 -18 11 -9 25 16 25 31 0 93 25 117 47
10 9 18 26 18 39 0 18 7 23 40 29 23 4 64 19 93 35 29 15 72 30 97 34 53 8
110 39 110 61 0 8 -9 24 -19 34 -19 19 -18 19 23 37 22 11 59 35 81 55 22 20
58 42 81 48 71 19 92 66 41 93 -19 10 -18 12 19 26 109 44 171 102 148 139
-10 15 -38 20 -193 29 -100 6 -183 13 -186 15 -2 3 35 13 83 23 134 29 312 89
384 129 89 50 170 123 166 151 -4 30 -31 31 -160 2 -123 -27 -371 -60 -623
-81 l-70 -6 107 44 c203 85 351 180 462 297 95 102 178 260 137 260 -5 0 -127
-58 -270 -129 -144 -71 -261 -126 -261 -122 0 4 27 33 61 66 135 134 242 290
299 436 49 129 33 180 -36 108z m-4284 -4407 c56 -28 80 -46 94 -72 16 -30
109 -108 141 -118 5 -2 3 1 -5 7 -12 8 -9 12 14 20 15 6 47 25 71 41 58 40 87
50 108 39 25 -14 21 -32 -12 -52 -16 -9 -55 -41 -85 -71 -50 -48 -56 -58 -56
-94 l0 -40 -29 29 c-24 23 -38 29 -74 29 -41 0 -47 3 -70 39 -20 29 -40 44
-80 60 -30 11 -69 29 -87 40 -26 15 -37 17 -56 9 -27 -13 -49 0 -57 34 -5 19
-2 20 33 15 21 -3 55 -18 77 -35 21 -16 49 -33 63 -36 23 -6 23 -5 6 6 -11 7
-33 25 -50 40 l-31 27 27 1 c15 0 32 -6 38 -12 6 -7 18 -22 28 -34 14 -17 65
-54 122 -89 8 -5 4 4 -8 20 -13 16 -39 38 -58 50 -19 11 -44 35 -54 53 -16 26
-26 32 -54 32 -52 0 -116 67 -89 93 14 15 62 4 133 -31z m-225 18 c-3 -5 -14
-10 -24 -10 -10 0 -30 -9 -45 -21 -14 -11 -26 -16 -26 -10 0 17 51 51 77 51
14 0 21 -4 18 -10z m65 0 c0 -5 -6 -10 -14 -10 -8 0 -21 -8 -28 -18 -22 -31
-42 -38 -23 -8 24 37 65 59 65 36z m860 -151 c-32 -167 -72 -229 -183 -285
-47 -24 -52 -25 -118 -13 -82 14 -106 36 -115 100 -6 41 -3 49 26 82 49 56
130 113 140 97 9 -14 58 -6 103 16 26 14 27 14 27 -13 l0 -27 26 35 c14 19 35
52 45 74 10 22 19 32 19 23 0 -24 12 -23 28 3 7 12 15 19 18 16 2 -2 -5 -51
-16 -108z m-822 81 c10 0 12 -3 7 -9 -13 -12 -67 -2 -59 11 3 5 13 7 21 4 8
-3 22 -6 31 -6z m-90 -90 c-15 -24 -22 -19 -13 9 3 12 11 19 16 16 5 -4 3 -14
-3 -25z m227 -160 l34 0 -34 -37 c-31 -33 -36 -36 -59 -25 -25 11 -43 52 -32
71 5 7 15 7 32 1 14 -6 41 -10 59 -10z m-138 -21 c-15 -12 -24 -26 -20 -32 3
-7 2 -8 -3 -4 -5 5 -14 -7 -20 -25 l-12 -33 -1 30 c0 33 13 55 44 73 33 19 42
13 12 -9z m378 -39 c44 -57 91 -90 171 -120 34 -13 30 -4 -7 15 -39 20 -33 29
9 14 29 -10 40 -7 112 30 85 43 108 49 128 29 22 -22 13 -38 -37 -68 -27 -17
-70 -55 -96 -85 -25 -30 -54 -55 -62 -55 -10 0 -2 11 20 28 20 15 36 31 37 35
0 4 -15 -4 -34 -18 -51 -39 -92 -32 -128 22 -16 22 -48 53 -72 67 -24 14 -53
37 -63 52 -17 24 -25 26 -91 26 -73 0 -102 12 -102 43 0 24 51 41 132 44 34 1
41 -4 83 -59z m-225 -14 c0 -9 -31 -76 -35 -76 -2 0 -3 6 -1 13 3 6 7 24 10
40 4 15 11 27 16 27 6 0 10 -2 10 -4z m-48 -118 c-4 -9 -62 19 -62 29 0 4 12
20 28 36 l27 29 5 -44 c3 -24 4 -46 2 -50z m249 47 c15 -17 46 -39 67 -49 25
-11 45 -30 55 -51 9 -18 29 -39 45 -46 l30 -13 -23 -18 c-13 -10 -29 -34 -35
-53 -9 -27 -17 -35 -35 -35 -14 0 -29 9 -36 21 -9 18 -6 26 22 55 l33 34 -14
43 c-13 35 -21 44 -55 55 -22 7 -51 24 -65 36 -19 18 -41 25 -92 29 -39 4 -70
2 -73 -3 -4 -6 -10 -10 -16 -10 -5 0 -4 9 3 20 8 13 26 20 53 22 75 6 106 -3
136 -37z m-317 -62 c-4 -10 -8 -32 -8 -50 -1 -17 -4 -29 -8 -26 -17 10 -4 93
14 93 6 0 7 -7 2 -17z m370 -199 c5 -14 -7 -14 -66 3 -33 8 -18 19 21 15 22
-2 42 -10 45 -18z"/>
<path d="M210 3495 c-30 -36 29 -178 127 -310 56 -74 200 -220 268 -272 28
-21 28 -22 5 -14 -69 25 -209 89 -328 152 -171 90 -184 85 -105 -35 109 -164
298 -326 491 -420 50 -24 89 -46 87 -48 -14 -14 -334 32 -409 58 -44 16 -76
18 -76 5 0 -15 73 -84 124 -118 89 -59 271 -119 446 -148 56 -9 70 -14 55 -20
-89 -36 -125 -56 -125 -69 0 -24 43 -31 191 -31 l137 0 -18 -26 c-10 -14 -41
-47 -69 -74 -82 -79 -64 -104 56 -79 37 8 111 35 165 62 54 26 98 43 98 37 -1
-21 -40 -96 -82 -156 -77 -110 -78 -112 -66 -126 23 -28 136 18 222 90 l48 40
-7 -34 c-4 -19 -16 -56 -27 -82 -12 -26 -18 -51 -14 -54 3 -4 28 0 56 9 l49
16 -9 -24 c-14 -36 17 -32 79 10 28 19 51 31 51 27 0 -15 -49 -120 -75 -161
-14 -21 -20 -42 -15 -45 14 -9 88 32 144 78 27 22 46 34 43 26 -18 -45 -29
-90 -24 -96 12 -12 61 21 129 88 38 37 68 64 68 62 0 -20 -35 -134 -57 -184
-21 -49 -24 -62 -13 -69 8 -5 23 -4 34 2 32 16 126 109 143 142 l15 28 19 -31
c14 -23 26 -31 48 -31 33 0 68 31 77 67 8 28 16 29 40 2 22 -24 66 -49 88 -49
9 0 19 14 24 33 l8 32 82 5 c44 3 86 10 92 16 7 7 28 10 49 7 24 -3 49 1 69
11 19 10 42 14 62 10 23 -5 36 -2 53 13 13 12 42 23 70 26 34 3 57 13 76 31
15 14 32 26 38 26 15 0 27 128 24 260 -3 133 7 168 70 262 89 132 248 252 362
273 20 4 37 10 37 14 0 4 -27 13 -60 19 -33 7 -92 26 -132 43 -174 73 -248
101 -318 120 -175 46 -433 69 -785 69 -423 0 -693 28 -871 90 -53 18 -91 27
-97 21 -14 -14 63 -91 135 -134 68 -42 66 -42 -97 10 -257 82 -530 219 -720
362 -33 25 -97 80 -142 123 -45 43 -86 78 -91 78 -5 0 -15 -7 -22 -15z"/>
<path d="M3370 2340 c-14 -11 -47 -27 -74 -36 -32 -11 -66 -34 -101 -68 l-51
-52 21 -22 c44 -47 115 -10 99 52 -9 38 -24 32 -17 -8 4 -28 1 -36 -16 -46
-12 -6 -30 -8 -40 -5 -21 6 -35 32 -22 40 5 3 11 -2 15 -10 7 -19 30 -19 45
-1 9 11 7 15 -10 19 -21 6 -21 6 7 34 16 16 49 36 74 46 47 18 109 61 100 70
-3 3 -16 -3 -30 -13z"/>
<path d="M3001 1978 c-6 -16 -5 -27 4 -37 17 -18 35 -6 34 22 -1 17 -2 18 -6
5 -7 -28 -26 -21 -21 7 6 31 0 32 -11 3z"/>
</g>
</svg>
