<?xml version="1.0" encoding="UTF-8" standalone="no"?><svg xmlns="http://www.w3.org/2000/svg" xmlns:xlink="http://www.w3.org/1999/xlink" fill="#000000" height="500.5" preserveAspectRatio="xMidYMid meet" version="1" viewBox="0.0 0.0 520.4 500.5" width="520.4" zoomAndPan="magnify"><g id="change1_6"><path d="M321.27,500.46H193.59c-28.41,0-51.53-23.12-51.53-51.53V264.26c0-41.97,34.14-76.11,76.11-76.11 c1.52,0,3,0.46,4.25,1.32l34.94,24.02l33.69-23.95c1.27-0.9,2.79-1.39,4.35-1.39h1.3c41.97,0,76.11,34.14,76.11,76.11v184.67 C372.8,477.34,349.69,500.46,321.27,500.46z M215.91,203.19c-32.65,1.2-58.84,28.13-58.84,61.07v184.67 c0,20.14,16.39,36.53,36.53,36.53h127.68c20.14,0,36.53-16.39,36.53-36.53V264.26c0-33.33-26.83-60.52-60.02-61.1l-36,25.59 c-2.57,1.83-6,1.85-8.59,0.07L215.91,203.19z" fill="#000000"/></g><g id="change1_2"><path d="M257.43,177.97c-20.06,0-39.67-12.73-55.2-35.83c-13.3-19.79-21.56-44.84-21.56-65.38 C180.68,34.43,215.11,0,257.43,0s76.75,34.43,76.75,76.75c0,20.54-8.26,45.6-21.56,65.38C297.1,165.25,277.5,177.97,257.43,177.97z M257.43,15c-34.05,0-61.75,27.7-61.75,61.75c0,17.72,7.28,39.57,19.01,57.02c12.47,18.56,28.05,29.2,42.75,29.2 c14.69,0,30.27-10.64,42.75-29.2c11.72-17.45,19.01-39.29,19.01-57.02C319.19,42.7,291.48,15,257.43,15z" fill="#000000"/></g><g id="change1_4"><path d="M413.01,192.36c-17.87,0-35.3-11.28-49.06-31.76c-11.73-17.46-19.02-39.57-19.02-57.72 c0-37.54,30.54-68.08,68.08-68.08s68.08,30.54,68.08,68.08c0,18.15-7.29,40.26-19.02,57.72 C448.31,181.08,430.89,192.36,413.01,192.36z M413.01,49.8c-29.27,0-53.08,23.81-53.08,53.08c0,15.33,6.31,34.24,16.47,49.35 c10.73,15.97,24.08,25.13,36.61,25.13s25.88-9.16,36.61-25.13c10.16-15.11,16.47-34.02,16.47-49.35 C466.09,73.61,442.28,49.8,413.01,49.8z" fill="#000000"/></g><g id="change1_5"><path d="M154.13,475.97H46.01C20.64,475.97,0,455.33,0,429.96V268.43c0-37.23,30.29-67.51,67.51-67.51 c1.52,0,3,0.46,4.25,1.32l30.02,20.64l28.94-20.57c1.27-0.9,2.79-1.39,4.35-1.39h1.13c12.68,0,25.04,3.54,35.75,10.23 c3.51,2.2,4.58,6.82,2.38,10.34c-2.2,3.51-6.82,4.58-10.34,2.38c-7.97-4.98-17.13-7.72-26.56-7.94l-31.24,22.2 c-2.57,1.83-6,1.85-8.59,0.07l-32.35-22.24C37.34,217.15,15,240.23,15,268.43v161.53c0,17.1,13.91,31.01,31.01,31.01h108.12 c4.14,0,7.5,3.36,7.5,7.5S158.28,475.97,154.13,475.97z" fill="#000000"/></g><g id="change1_1"><path d="M101.86,193.88c-17.87,0-35.3-11.28-49.06-31.76c-11.73-17.46-19.02-39.57-19.02-57.72 c0-37.54,30.54-68.08,68.08-68.08s68.08,30.54,68.08,68.08c0,18.15-7.29,40.26-19.02,57.72 C137.15,182.61,119.73,193.88,101.86,193.88z M101.86,51.33c-29.27,0-53.08,23.81-53.08,53.08c0,15.33,6.31,34.24,16.47,49.35 c10.73,15.97,24.08,25.13,36.61,25.13s25.88-9.16,36.61-25.13c10.16-15.11,16.47-34.02,16.47-49.35 C154.93,75.14,131.12,51.33,101.86,51.33z" fill="#000000"/></g><g id="change1_3"><path d="M474.39,475.97H366.27c-4.14,0-7.5-3.36-7.5-7.5s3.36-7.5,7.5-7.5h108.12c17.1,0,31.01-13.91,31.01-31.01 V268.43c0-28.2-22.34-51.28-50.25-52.47L422.8,238.2c-2.6,1.78-6.03,1.76-8.59-0.07l-31.24-22.2c-9.43,0.22-18.59,2.95-26.56,7.94 c-3.51,2.2-8.14,1.13-10.34-2.38c-2.2-3.51-1.13-8.14,2.38-10.34c10.71-6.69,23.07-10.23,35.75-10.23h1.13 c1.56,0,3.08,0.48,4.35,1.39l28.93,20.57l30.02-20.64c1.25-0.86,2.73-1.32,4.25-1.32c37.23,0,67.51,30.29,67.51,67.51v161.53 C520.4,455.33,499.76,475.97,474.39,475.97z" fill="#000000"/></g></svg>